<?xml version="1.0" standalone="no"?>
<!DOCTYPE svg PUBLIC "-//W3C//DTD SVG 20010904//EN"
 "http://www.w3.org/TR/2001/REC-SVG-20010904/DTD/svg10.dtd">
<svg version="1.0" xmlns="http://www.w3.org/2000/svg"
 width="640.000000pt" height="640.000000pt" viewBox="0 0 640.000000 640.000000"
 preserveAspectRatio="xMidYMid meet">

<g transform="translate(0.000000,640.000000) scale(0.100000,-0.100000)"
fill="#000000" stroke="none">
<path d="M3198 6367 c-15 -18 -33 -40 -40 -49 -10 -12 -41 -17 -138 -22 -69
-3 -143 -10 -165 -15 -22 -5 -73 -14 -112 -21 -61 -11 -73 -16 -73 -33 0 -17
5 -18 53 -12 28 4 72 14 97 22 57 18 265 30 273 16 4 -6 -7 -26 -23 -44 -16
-19 -30 -37 -30 -41 0 -4 -8 -15 -18 -25 -33 -32 -208 -280 -220 -311 -3 -10
-13 -23 -21 -29 -13 -10 -7 -11 34 -7 76 9 78 10 72 47 -4 26 3 43 36 92 22
33 44 62 47 65 4 3 22 28 40 55 51 75 132 175 143 175 10 0 97 -85 97 -95 0
-4 11 -21 26 -40 29 -38 89 -182 99 -237 4 -21 11 -38 15 -38 5 0 15 -3 24 -6
22 -9 20 12 -8 98 -37 113 -49 141 -71 173 -11 17 -26 41 -32 55 -6 14 -34 51
-63 82 -54 60 -56 74 -15 108 9 7 25 26 36 42 l20 28 -28 0 c-19 -1 -37 -11
-55 -33z"/>
<path d="M5750 6285 c0 -8 7 -15 15 -15 8 0 15 7 15 15 0 8 -7 15 -15 15 -8 0
-15 -7 -15 -15z"/>
<path d="M6342 6101 c2 -7 7 -12 11 -12 12 1 9 15 -3 20 -7 2 -11 -2 -8 -8z"/>
<path d="M190 6045 c0 -8 5 -15 10 -15 6 0 10 7 10 15 0 8 -4 15 -10 15 -5 0
-10 -7 -10 -15z"/>
<path d="M2696 5988 c-18 -26 -6 -62 22 -66 27 -4 55 35 42 58 -15 27 -48 31
-64 8z"/>
<path d="M87 5994 c-8 -8 1 -24 14 -24 5 0 9 7 9 15 0 15 -12 20 -23 9z"/>
<path d="M4104 5935 c-8 -32 6 -48 37 -43 19 2 24 9 24 33 0 25 -4 31 -27 33
-22 3 -29 -2 -34 -23z"/>
<path d="M200 5910 c0 -5 5 -10 10 -10 6 0 10 5 10 10 0 6 -4 10 -10 10 -5 0
-10 -4 -10 -10z"/>
<path d="M5832 5768 c-31 -31 7 -81 43 -55 23 18 16 61 -10 65 -11 1 -26 -3
-33 -10z"/>
<path d="M5671 5642 c-20 -38 31 -71 59 -37 6 8 9 23 5 35 -8 25 -51 27 -64 2z"/>
<path d="M1728 5583 c-39 -9 -26 -73 15 -73 33 0 49 15 45 40 -3 24 -31 39
-60 33z"/>
<path d="M2880 5554 c-364 -48 -722 -186 -1040 -401 -166 -112 -375 -309 -530
-498 -78 -96 -200 -288 -264 -419 -115 -234 -207 -555 -224 -781 -4 -49 -7
-193 -6 -320 1 -204 4 -245 27 -366 42 -216 123 -463 196 -593 57 -104 134
-233 171 -286 20 -31 44 -69 53 -86 8 -16 34 -50 57 -74 23 -25 59 -67 80 -95
21 -27 58 -69 81 -92 l44 -42 56 13 c60 14 190 80 250 127 20 16 43 29 51 29
47 0 74 63 44 103 -33 43 -113 1 -102 -54 6 -32 -3 -43 -69 -89 -47 -33 -135
-73 -142 -66 -3 2 17 31 43 63 46 56 114 186 114 217 0 9 8 16 18 16 25 0 52
31 52 58 0 28 -34 62 -60 62 -23 0 -60 -33 -60 -55 0 -8 5 -25 11 -38 9 -20 5
-37 -20 -99 -32 -77 -130 -208 -155 -208 -16 0 -8 52 24 161 19 61 25 71 55
83 39 17 54 54 36 92 -15 33 -82 35 -105 2 -20 -28 -21 -57 -2 -64 11 -4 8
-23 -16 -96 -16 -49 -31 -110 -35 -134 -3 -25 -9 -47 -13 -49 -25 -16 -85 114
-96 209 -6 48 -4 55 20 79 26 26 34 69 18 94 -8 13 -55 33 -77 33 -21 0 -55
-33 -60 -59 -5 -26 23 -81 41 -81 6 0 14 -23 18 -51 4 -29 10 -65 13 -82 9
-43 -10 -28 -37 30 -12 27 -34 62 -49 78 -37 40 -150 259 -154 298 -2 19 7 24
67 39 150 36 296 134 373 248 39 59 79 162 87 228 12 96 -24 233 -83 312 -73
98 -179 169 -309 205 -50 14 -88 17 -187 13 -69 -3 -128 -2 -130 2 -5 9 30
285 46 356 11 50 18 60 83 116 155 132 254 282 314 479 19 62 19 70 5 110 -18
52 -7 102 30 140 17 17 26 41 31 84 7 60 33 111 77 151 16 14 23 15 46 5 23
-10 30 -9 52 7 23 17 26 26 23 68 -3 45 -1 50 35 81 l38 33 3 -27 c1 -16 7
-55 13 -87 9 -51 8 -63 -7 -92 -15 -28 -16 -36 -5 -58 18 -32 56 -42 87 -21
33 21 32 67 -1 93 -29 23 -44 81 -45 169 0 55 3 65 27 88 15 14 31 25 34 25
11 0 39 -91 39 -124 0 -17 -7 -40 -15 -50 -42 -55 16 -121 78 -89 27 13 30 18
30 48 0 37 -4 46 -26 56 -18 8 -27 28 -45 102 -24 100 -25 98 28 127 19 10 84
-41 124 -98 23 -33 26 -44 17 -61 -38 -71 69 -138 118 -75 34 44 26 86 -21
110 -16 9 -36 13 -43 10 -8 -3 -25 12 -41 35 -15 22 -45 55 -66 75 -32 29 -37
38 -27 50 6 8 19 14 29 14 24 0 70 -38 70 -59 0 -41 63 -56 93 -23 22 24 22
71 0 88 -22 16 -69 18 -78 4 -7 -12 -35 5 -35 21 0 12 151 99 171 99 10 0 37
-16 61 -36 47 -39 85 -70 136 -110 20 -16 32 -35 32 -49 0 -32 31 -158 69
-279 17 -54 31 -104 31 -112 0 -12 37 -30 46 -21 2 2 -3 24 -11 48 -9 24 -34
105 -56 179 -36 125 -47 180 -34 180 3 0 49 -26 103 -59 165 -99 460 -232 584
-262 29 -7 62 -21 74 -31 28 -25 36 -23 32 9 -3 23 -10 29 -51 39 -143 36
-437 168 -630 282 l-108 63 20 27 c45 63 158 144 277 198 76 34 93 62 31 49
-65 -14 -238 -125 -314 -202 -24 -24 -46 -43 -50 -43 -12 0 -137 84 -172 117
-20 18 -33 35 -29 38 12 12 204 95 220 95 10 0 35 6 55 14 102 39 276 88 381
107 89 16 172 23 344 26 200 5 380 -5 396 -22 3 -2 -20 -37 -50 -77 -48 -65
-63 -92 -99 -185 -30 -80 -15 -244 33 -340 53 -107 166 -199 294 -239 60 -19
97 -24 183 -24 124 0 206 20 308 75 83 46 108 69 132 125 19 45 70 100 92 100
14 0 58 97 65 143 4 20 10 40 15 42 4 3 37 -17 74 -45 36 -27 72 -50 80 -50
21 0 239 86 242 96 2 5 -21 33 -50 62 l-54 53 -127 -50 -126 -51 -58 47 c-157
128 -456 292 -667 366 -119 41 -335 90 -493 112 -140 19 -446 18 -592 -1z
m1353 -311 c27 -8 14 -28 -19 -28 -23 0 -30 5 -32 24 -3 20 -1 23 15 16 10 -4
26 -10 36 -12z m127 -110 c0 -20 -28 -53 -45 -53 -19 0 -48 38 -41 55 14 37
86 35 86 -2z"/>
<path d="M5823 5543 c-18 -7 -16 -48 3 -64 11 -9 20 -10 32 -2 24 15 27 45 6
60 -19 14 -22 14 -41 6z"/>
<path d="M1580 5351 c0 -5 9 -19 19 -32 15 -18 22 -21 31 -13 9 9 8 17 -2 33
-13 21 -48 30 -48 12z"/>
<path d="M5333 4930 c0 -78 -41 -108 -263 -194 -63 -24 -164 -63 -225 -86 -60
-23 -115 -48 -121 -54 -6 -6 -32 -72 -58 -146 -26 -74 -67 -189 -91 -255 -24
-66 -49 -138 -56 -160 -7 -22 -17 -45 -21 -51 -9 -12 -74 -192 -130 -359 -81
-240 -157 -458 -264 -753 -45 -128 -51 -152 -34 -152 15 0 55 -69 73 -125 8
-27 43 -126 77 -220 93 -259 92 -255 86 -291 -4 -20 -20 -45 -42 -63 -30 -27
-43 -31 -89 -31 -30 0 -55 -2 -55 -5 0 -2 13 -25 29 -50 85 -135 58 -335 -61
-454 -115 -115 -269 -148 -419 -92 -30 12 -56 21 -58 21 -1 0 26 -29 61 -63
38 -38 89 -76 124 -92 32 -16 60 -29 62 -30 1 -1 -57 -61 -130 -134 -106 -105
-138 -131 -160 -131 -26 0 -72 -8 -282 -49 -50 -10 -91 -22 -93 -28 -7 -21 30
-22 105 -3 146 37 245 45 262 19 3 -4 30 -2 60 5 30 8 50 14 44 15 -21 2 -24
31 -6 49 9 10 32 38 51 62 19 25 67 74 108 110 l73 65 94 12 c116 15 180 45
252 119 74 75 99 142 98 259 -1 75 -5 99 -27 145 -15 30 -34 65 -43 77 l-16
23 51 0 c71 0 117 21 137 64 17 34 16 36 -29 168 -147 423 -159 454 -184 480
l-26 27 45 128 c25 70 87 247 138 393 51 146 97 269 101 274 4 5 39 -12 78
-38 101 -68 283 -147 361 -158 l25 -3 -2 83 c-5 190 -87 381 -236 555 -32 37
-47 63 -44 75 3 9 33 96 67 192 34 96 77 218 95 270 l33 95 128 52 c111 45
129 55 129 74 0 20 15 28 103 62 90 35 106 38 126 27 20 -10 30 -9 60 5 44 21
66 59 66 114 0 42 -3 46 -97 150 l-40 43 0 -42z m-690 -1391 c33 -50 57 -93
54 -96 -3 -2 -28 30 -56 72 -62 93 -74 115 -64 115 4 0 34 -41 66 -91z"/>
<path d="M325 4850 c-4 -6 -4 -22 -1 -36 5 -20 12 -25 34 -22 23 2 27 8 27 33
0 25 -4 31 -27 33 -14 2 -29 -2 -33 -8z"/>
<path d="M150 4835 c-20 -25 -8 -50 25 -50 21 0 31 5 33 18 4 21 -14 47 -33
47 -7 0 -18 -7 -25 -15z"/>
<path d="M235 4646 c-23 -17 -16 -60 11 -64 26 -4 48 21 39 47 -8 25 -29 33
-50 17z"/>
<path d="M5390 4602 c0 -3 6 -13 14 -21 23 -26 132 -239 174 -341 76 -182 146
-452 178 -685 25 -180 25 -517 1 -675 -44 -283 -107 -488 -240 -780 -51 -113
-176 -321 -261 -435 -244 -328 -550 -582 -951 -791 -195 -101 -476 -191 -736
-234 -236 -39 -571 -43 -799 -9 -120 17 -345 74 -475 119 -251 88 -596 275
-735 400 -19 17 -43 35 -53 41 -16 9 -16 8 0 -26 9 -19 23 -35 30 -35 8 0 71
-46 141 -103 70 -57 150 -119 177 -139 66 -47 224 -138 306 -178 49 -23 82
-49 130 -102 35 -39 64 -76 64 -82 0 -15 -29 -16 -197 -2 -124 11 -156 17
-197 39 -40 20 -52 23 -60 13 -8 -9 -6 -17 7 -28 53 -45 180 -69 390 -73 l113
-2 87 -79 c105 -95 178 -151 252 -192 107 -59 230 -96 230 -69 0 7 -30 23 -72
36 -95 31 -208 92 -285 156 -74 61 -183 172 -183 187 0 8 7 23 15 34 8 12 11
24 8 28 -13 13 28 5 79 -14 29 -11 65 -20 80 -20 15 0 53 -7 85 -15 75 -20
419 -72 514 -78 l36 -2 -64 -134 c-35 -73 -62 -140 -59 -147 11 -28 28 -12 57
54 17 37 48 104 70 148 l39 81 152 8 c84 4 164 11 178 17 14 5 59 11 100 13
41 1 86 7 100 13 14 6 66 23 115 37 120 36 276 88 352 118 34 14 64 22 67 19
3 -3 6 -30 6 -61 0 -111 62 -328 136 -472 l25 -50 37 32 c129 112 238 301 288
499 12 51 24 227 24 356 0 7 39 43 88 82 140 113 314 295 429 451 222 299 380
641 455 983 23 106 23 107 53 110 24 2 31 8 33 30 3 23 -2 30 -23 38 -21 8
-26 15 -22 32 4 12 12 104 18 204 17 258 -9 604 -61 809 -26 103 -28 120 -15
128 8 4 15 18 15 31 0 14 24 49 63 91 93 102 198 205 209 205 6 0 7 7 4 16 -3
9 -2 12 4 9 6 -4 27 7 48 23 36 28 162 92 182 92 6 0 10 7 10 15 0 8 -2 15 -5
15 -20 0 -135 -56 -192 -93 -68 -44 -291 -259 -320 -308 -22 -37 -60 -34 -72
6 -5 17 -9 43 -9 59 0 20 -9 36 -31 55 -17 15 -31 31 -31 36 0 16 -121 247
-177 339 -46 74 -143 188 -143 168z m-744 -3834 c-7 -29 -21 -88 -31 -130 -10
-43 -22 -78 -27 -78 -12 0 -11 7 18 127 31 131 31 133 43 133 5 0 4 -22 -3
-52z m-2263 -154 c51 -17 54 -21 33 -49 -15 -21 -10 -23 -65 38 -29 32 -28 32
32 11z m2197 -104 c0 -5 -4 -10 -10 -10 -5 0 -10 5 -10 10 0 6 5 10 10 10 6 0
10 -4 10 -10z"/>
<path d="M4090 4280 c0 -43 -25 -87 -63 -110 -31 -19 -59 -20 -1174 -20 -629
0 -1143 -1 -1142 -2 0 -2 19 -61 43 -133 l42 -130 42 -3 42 -3 -7 33 c-3 18
-10 41 -15 51 -5 9 -6 22 -3 27 4 7 411 10 1142 10 1245 0 1179 -3 1216 59 23
39 22 96 -3 135 -10 17 -42 50 -70 74 l-50 43 0 -31z"/>
<path d="M686 4083 c-78 -138 -117 -262 -124 -389 -2 -56 -1 -123 3 -150 l8
-49 19 110 c27 160 74 343 119 463 21 58 37 107 35 109 -2 3 -29 -40 -60 -94z"/>
<path d="M3810 3743 c0 -53 -44 -108 -98 -123 -24 -6 -356 -10 -936 -10 -851
0 -898 -1 -891 -17 4 -10 25 -76 48 -148 22 -71 42 -132 44 -134 5 -8 73 -9
78 -1 3 4 -4 38 -15 74 -12 37 -18 71 -15 76 4 6 335 10 923 10 899 0 918 0
950 20 35 22 52 54 52 101 0 43 -20 76 -84 139 l-56 54 0 -41z"/>
<path d="M6352 3518 c-27 -27 -2 -75 32 -62 12 5 16 16 14 38 -3 33 -25 45
-46 24z"/>
<path d="M3660 3173 c0 -20 -9 -51 -21 -70 -41 -66 -1 -63 -823 -63 -410 0
-747 -3 -749 -7 -2 -5 14 -63 35 -130 l39 -123 41 0 c40 0 41 0 35 33 -4 17
-9 42 -13 54 l-6 23 766 2 766 3 32 33 c29 29 33 39 33 86 0 53 -1 55 -67 124
l-68 70 0 -35z"/>
<path d="M560 2835 c-58 -139 -50 -307 20 -430 27 -48 73 -103 119 -141 40
-33 40 -38 -8 98 -40 114 -67 220 -95 375 -22 121 -24 126 -36 98z"/>
<path d="M4937 2795 c-168 -46 -303 -177 -344 -332 -21 -80 -13 -228 17 -303
53 -134 175 -278 273 -322 30 -14 34 -26 12 -34 -8 -4 -15 -18 -15 -34 0 -29
19 -43 45 -34 16 6 18 15 15 53 -1 13 2 21 7 19 4 -2 21 -10 36 -18 36 -18 51
-9 94 56 18 27 49 71 68 98 29 40 34 55 29 81 -5 29 -3 33 20 39 28 7 77 81
80 120 0 13 4 22 8 20 7 -5 58 95 58 113 0 5 8 24 19 43 10 19 28 69 40 110
13 41 31 102 42 134 25 77 25 78 -14 100 -162 95 -348 130 -490 91z m134 -755
c26 -15 25 -57 -2 -65 -29 -9 -69 13 -62 34 5 14 31 41 41 41 2 0 12 -5 23
-10z"/>
<path d="M2060 2445 l70 -70 921 -5 c507 -3 923 -2 925 2 2 3 -7 37 -21 75
l-25 68 -970 0 -970 0 70 -70z"/>
<path d="M694 2186 c-8 -32 2 -46 31 -46 29 0 39 14 31 46 -5 17 -13 24 -31
24 -18 0 -26 -7 -31 -24z"/>
<path d="M233 2113 c-22 -8 -16 -61 7 -68 43 -14 69 44 31 65 -11 5 -21 10
-23 9 -2 0 -9 -3 -15 -6z"/>
<path d="M2035 1950 c21 -22 42 -40 46 -40 8 0 49 62 49 74 0 3 -30 6 -67 6
l-67 0 39 -40z"/>
<path d="M2744 1968 c9 -13 29 -48 43 -78 23 -46 27 -69 27 -140 1 -75 -3 -93
-31 -152 -93 -198 -296 -284 -494 -208 -29 11 -54 18 -56 16 -2 -1 26 -31 61
-65 68 -64 165 -118 240 -132 54 -10 174 21 244 64 179 108 233 358 112 527
-11 15 -20 31 -20 34 0 3 128 6 285 6 l286 0 19 46 c11 26 30 59 41 75 l20 29
-397 0 -396 0 16 -22z"/>
<path d="M2383 1899 c-67 -20 -122 -106 -109 -172 9 -46 41 -94 78 -117 46
-28 56 -25 68 20 15 56 66 106 124 122 43 11 47 15 41 38 -19 80 -119 134
-202 109z"/>
<path d="M3765 1898 c-122 -44 -143 -211 -36 -284 46 -31 59 -30 67 4 10 39
50 99 76 113 13 7 41 18 63 25 31 9 39 16 37 30 -5 25 -47 80 -75 99 -31 20
-96 26 -132 13z"/>
<path d="M155 1860 c-8 -27 12 -52 39 -48 16 2 21 10 21 33 0 25 -4 31 -27 33
-19 2 -28 -2 -33 -18z"/>
<path d="M1735 1349 c-7 -11 -2 -15 75 -70 38 -27 41 -28 23 -8 -13 14 -23 29
-23 33 0 11 -48 56 -60 56 -5 0 -12 -5 -15 -11z"/>
<path d="M2556 963 c-13 -14 -5 -33 14 -33 11 0 20 6 20 14 0 15 -24 28 -34
19z"/>
<path d="M22 541 c4 -13 18 -16 19 -4 0 4 -5 9 -11 12 -7 2 -11 -2 -8 -8z"/>
<path d="M6250 495 c0 -8 5 -15 10 -15 6 0 10 7 10 15 0 8 -4 15 -10 15 -5 0
-10 -7 -10 -15z"/>
<path d="M6072 339 c2 -6 8 -10 13 -10 5 0 11 4 13 10 2 6 -4 11 -13 11 -9 0
-15 -5 -13 -11z"/>
<path d="M542 249 c1 -13 8 -23 13 -21 15 3 12 35 -3 40 -9 3 -13 -3 -10 -19z"/>
<path d="M6240 114 c0 -17 22 -14 28 4 2 7 -3 12 -12 12 -9 0 -16 -7 -16 -16z"/>
<path d="M130 34 c0 -8 5 -12 10 -9 6 3 10 10 10 16 0 5 -4 9 -10 9 -5 0 -10
-7 -10 -16z"/>
<path d="M5680 40 c0 -5 5 -10 10 -10 6 0 10 5 10 10 0 6 -4 10 -10 10 -5 0
-10 -4 -10 -10z"/>
</g>
</svg>
